<?xml version="1.0"?>
<svg width="440" height="280" xmlns="http://www.w3.org/2000/svg" xmlns:svg="http://www.w3.org/2000/svg">
 <!-- Created with SVG-edit - http://svg-edit.googlecode.com/ -->
 <g>
  <title>Layer 1</title>
  <ellipse ry="85" rx="85" id="svg_3" cy="119.75" cx="158.5" stroke-width="5" stroke="#007fff" fill="#007fff"/>
  <rect stroke="#ffffff" stroke-linejoin="round" id="svg_1" height="101.912336" width="104.629999" y="68.793832" x="106.185002" stroke-width="5" fill="#ffffff"/>
  <path d="m110.736862,74.15287c1.154335,0 2.114098,0.059189 3.014252,-0.055336c0.895004,-0.113869 1.792084,-0.194664 2.650078,-0.194664c0.83046,0 1.760338,0 2.716339,0c0.908623,0 1.689995,0 2.603996,0c0.890335,0 1.778,0 2.711754,0c0.853584,0 1.73558,0 2.621582,0c0.900002,0 1.817421,0 2.681328,0c0.917343,0 1.792343,0 2.750671,0c0.800003,0 1.681229,0.044136 2.566757,0.161835c0.799118,0.106216 1.769913,0.088165 2.72525,0.088165c0.874664,0 1.768814,0.138412 2.592575,0.23571c0.890594,0.105194 1.754089,0.01429 2.657089,0.01429c0.84375,0 1.75,0 2.703125,0c0.921875,0 1.739578,0 2.600204,0c0.907501,0 1.778183,-0.003975 2.622665,0.00267c0.921051,0.007248 1.824539,0.03054 2.633621,0.085495c0.940216,0.063858 1.956619,0.134758 2.702377,0.168167c0.927124,0.041534 1.709641,0.111137 2.738007,0.285332c0.86734,0.146919 1.515701,0.322662 2.585663,0.415672c0.781937,0.06797 1.866623,0.042664 2.778214,0.042664c0.77774,0 1.628448,0 2.419113,0c1.089676,0 1.902679,0 2.763672,0c0.949829,0 1.782333,0 2.776993,0c0.843002,0 1.744263,0 2.634674,0c0.889297,0 1.75,0 2.610703,0c0.904922,0 1.873291,0 2.563965,0c1.070419,0 1.908661,0 2.712662,0c1,0 1.955002,0 2.650635,0c0.950363,0 1.890701,0 2.812073,0c0.941635,0 1.733215,0 2.691635,0c0.842911,0 1.710785,0 2.608002,0c0.891327,0 1.808655,0 2.662994,0c0.899002,0 1.773712,0.096588 2.679672,-0.021332c0.911041,-0.118584 1.799332,-0.228668 2.643372,-0.228668c0.914246,0 1.805954,0 2.660629,0c0.903656,0 1.203659,0.708336 1.203659,1.401039c0,1.023964 0,1.898964 0,2.773964c0,0.875 0,1.75 0,2.625c0,1.050331 0,1.758995 0,2.680374c0,0.774834 0,1.769623 0,2.759209c0,0.927078 0,1.744789 0,2.604958c0,0.862457 0,1.754791 0,2.730453c0,0.900002 0,1.725006 0,2.634003c0,0.884666 -0.067657,1.75061 0.009003,2.634666c0.081436,0.939156 0.240829,1.756332 0.240997,2.697998c0.000153,0.875 0,1.772003 0,2.666672c0,0.862663 0,1.671875 0,2.665543c0,0.945831 -0.000015,1.718452 0,2.641747c0.000031,0.939667 -0.028366,1.772324 0.070999,2.690712c0.099915,0.923485 0.179001,1.782951 0.179001,2.668663c0,0.816002 0.204834,1.690681 0.248871,2.491333c0.054367,0.988503 0.035797,1.888054 0.000793,2.741333c-0.035538,0.866158 -0.196136,1.799438 -0.27066,2.64267c-0.079361,0.898018 -0.209091,1.845734 -0.223801,2.624664c-0.018082,0.958176 -0.005203,1.739586 -0.005203,2.766998c0,0.806664 0,1.703285 0,2.67762c0,0.730042 0,1.709045 0,2.638702c0,0.850677 0,1.732666 0,2.646957c0,0.886719 0,1.769714 0,2.559387c0,0.984329 0,1.81366 0,2.793655c0,0.769135 0,1.659668 0,2.691666c0,0.75 0,1.649002 0,2.486008c0,0.984329 0,1.893005 0,2.863998c0,0.880341 0.000641,1.708328 0,2.649994c-0.000565,0.825012 -0.034027,1.74971 -0.392334,2.542343c-0.384628,0.850861 -0.746552,1.613602 -0.964005,2.496002c-0.204575,0.830139 -0.393661,1.690659 -0.393661,2.561661c0,0.899994 0.15097,1.843369 0,2.708328c-0.126892,0.726974 -0.091782,1.785919 -0.734665,2.14801c-0.732468,0.412537 -1.68161,0.186493 -2.53096,0.13324c-0.888565,-0.05571 -1.685272,-0.315079 -2.716507,-0.594864c-0.761673,-0.20665 -1.578278,-0.410126 -2.652115,-0.609131c-0.760513,-0.140945 -1.56897,-0.251434 -2.490753,-0.452255c-0.716461,-0.156097 -1.480865,-0.360626 -2.268005,-0.548996c-0.766922,-0.183533 -2.113159,-0.454208 -2.940323,-0.508286c-0.733841,-0.047989 -1.687668,-0.026047 -2.660339,-0.026047c-0.964661,0 -1.664795,0 -2.55162,0c-1.012039,0 -1.749374,0 -2.804718,0c-0.699997,0 -1.750473,0.025681 -2.610703,-0.014297c-0.977936,-0.045456 -1.758453,-0.198853 -2.579712,-0.30957c-0.879501,-0.118561 -1.822662,-0.16803 -2.59642,-0.175003c-1.123825,-0.010132 -1.837036,-0.001129 -2.888153,-0.001129c-0.700012,0 -1.747757,-0.001282 -2.582336,0c-0.872009,0.001343 -1.816147,0.111862 -2.684341,0.208328c-0.859482,0.095505 -1.761398,0.118942 -2.56633,0.242004c-0.876083,0.133942 -1.893875,0.253067 -2.641998,0.320663c-0.985611,0.08905 -1.88147,0.217422 -2.740631,0.317169c-0.927582,0.107681 -1.75,0.16127 -2.573868,0.161835c-1.060501,0.000732 -1.796219,-0.033279 -2.664078,0.002243c-1.023773,0.041901 -1.746185,0.330307 -2.678421,0.455093c-0.964005,0.129044 -1.81575,0.041122 -2.691666,0.042664c-0.756332,0.001343 -1.783875,-0.005646 -2.625336,0.152664c-0.912033,0.171585 -1.785294,0.468582 -2.634003,0.57634c-0.932022,0.118347 -1.66243,0.23027 -2.641998,0.265793c-0.978378,0.035477 -1.770996,0.005203 -2.608994,0.005203c-1.04097,0 -1.782013,0 -2.752838,0c-0.92984,0 -1.76384,0 -2.666504,0c-0.87413,0 -1.79129,0 -2.721664,0c-0.778664,0 -1.785172,0.08284 -2.528999,0.179001c-0.965561,0.124832 -1.87738,-0.02774 -2.691338,0.071671c-0.877274,0.107132 -1.630333,0.498993 -2.577202,0.499329c-0.899796,0.00032 -1.745415,0.155518 -2.573463,0.479004c-0.812279,0.317322 -1.679146,0.402298 -2.52787,0.609161c-0.841736,0.205154 -2.046822,0.669632 -2.595917,0.031631c-0.586525,-0.681503 -0.005211,-1.675629 -0.005211,-2.625137c0,-0.871902 0,-1.827988 0,-2.630081c0,-1.039581 0,-1.739578 0,-2.789581c0,-0.699997 0,-1.749832 0,-2.589005c0,-0.906082 0,-1.778 0,-2.652664c0,-0.963699 0,-1.833328 0,-2.654663c0,-0.91333 0,-1.803665 0,-2.699326c0,-0.909592 0,-1.737595 0,-2.671341c0,-0.87587 0,-1.797577 0,-2.677795c0,-0.881866 0,-1.776535 0,-2.72287c0,-0.709579 0,-1.608459 0,-2.699005c0,-0.677994 0,-1.444 0,-2.589371c0,-0.77063 0,-1.827286 0,-2.608047c0,-0.785248 0,-1.88591 0,-2.773155c0,-0.602325 0,-1.482079 0,-2.530411c0,-0.875999 0,-1.796791 0,-2.647003c0,-0.986916 0,-1.686668 0,-2.612663c0,-1.040001 0,-1.908295 0,-2.707047c0,-0.959625 -0.093323,-1.879074 0.11071,-2.779915c0.182518,-0.805847 0.54203,-1.60289 0.608917,-2.501625c0.064758,-0.870117 0.022812,-1.866035 0.030411,-2.700127c0.007141,-0.783844 0.18206,-1.737534 0.244751,-2.639168c0.061211,-0.880341 0.005211,-1.816208 0.005211,-2.675125c0,-0.844872 0,-1.802917 0,-2.638329c0,-0.936546 0,-1.825958 0,-2.706337c0,-0.908997 0,-1.814377 0,-2.610413c0,-0.93692 0,-1.839584 0,-2.739586c0,-0.875 0,-1.760498 0,-2.609375c0,-0.915627 -0.075745,-1.852379 0,-2.690628c0.081245,-0.899124 0.432343,-1.633194 0.570999,-2.5c0.136124,-0.850937 1.022667,-0.949997 1.919418,-0.949997c0.821625,0 1.764793,-0.001099 2.644997,0c0.901421,0.001129 1.755775,0.163895 2.593582,0.358002c0.786987,0.182335 1.703087,0.141998 2.531418,0.141998c1.072922,0 1.800919,0 2.834503,0c0.715416,0 1.667374,0 2.649872,0c0.736885,0 1.689751,0 2.635551,0c0.971405,0 1.630081,0 2.653488,0c0.823502,0 1.82251,0 2.719833,0c0.85434,0 1.788345,0 2.66301,0c0.916656,0 1.681992,0 2.606079,0c0.869919,0 1.825912,0 2.680908,0c0.890015,0 1.820221,0 2.646347,0c0.978333,0 1.853668,0 2.746323,0c0.862,0 1.778961,-0.022896 2.695343,0c0.834106,0.020836 1.595078,0.185959 2.587662,0.240997c0.91568,0.050774 1.765762,0.148163 2.634827,0.22863c0.904144,0.083717 1.86084,0.030373 2.709167,0.030373c0.792007,0 1.810135,0 2.649216,0c0.90358,0 1.835815,-0.007378 2.683792,0c0.821213,0.007149 1.642929,0.203323 2.543671,0.24733c0.989822,0.048363 1.856323,0.00267 2.761658,0.00267c0.894669,0 1.817001,0 2.638336,0c0.800003,0 1.778671,0 2.642334,0c0.845001,0 1.81134,-0.004646 2.70134,0c0.862686,0.004501 1.754852,0.191483 2.651123,0.244789c0.873474,0.051956 1.780197,0.004089 2.605209,0.005211c0.981995,0.001335 1.774979,0.247391 2.693665,0.25c0.914658,0.002594 1.788406,-0.05513 2.662659,0c0.879242,0.055443 1.649002,0.499817 2.563248,0.5c0.851425,0.000168 1.705521,0.068947 2.567261,0.25c0.700256,0.147125 0.663162,1.141335 0.663162,2.083336c0,0.737328 0,1.538666 0,2.605957c0,0.886833 0,1.785667 0,2.680496c0,0.658875 0,1.713669 0,2.500504c0,1.055626 0,1.914375 0,2.929001c0,0.648376 0,1.701706 0,2.672043c0,0.878624 0,1.737 0,2.603745c0,0.967583 0,1.675583 0,2.656921c0,0.892998 0,1.783333 0,2.697998c0,0.986664 0,1.64267 0,2.611664c0,0.870667 0,1.723961 0,2.757004c0,0.816002 0,1.685333 0,2.594002c0,0.879875 0,1.762749 0,2.628998c0,0.962708 0,1.823418 0,2.733543c0,0.864578 0,1.755501 0,2.692123c0,0.897789 0,1.76329 0,2.562027c0,0.941635 -0.026093,1.831787 -0.143661,2.687958c-0.123154,0.896835 -0.082687,1.722794 -0.12767,2.611679c-0.043839,0.866211 -0.189651,1.68158 -0.326004,2.745667c-0.088226,0.688477 -0.182236,1.742722 -0.402664,2.565125c-0.247009,0.921585 -0.25,1.807663 -0.25,2.710571c0,0.919632 0,1.772293 0,2.656677c0,0.898666 0,1.752533 0,2.662949c0,0.900009 0,1.808334 0,2.643677c0,0.906326 -0.70076,1.26326 -1.564285,1.117035c-0.898376,-0.15213 -1.7668,-0.459747 -2.440918,-0.660706c-0.97168,-0.289658 -1.676987,-0.432892 -2.720215,-0.663162c-0.769196,-0.169785 -1.659454,-0.459 -2.570953,-0.556458c-0.733627,-0.078445 -1.818634,-0.03038 -2.682419,-0.03038c-0.790878,0 -1.732132,0 -2.64621,0c-0.950089,0 -1.810715,0 -2.60434,0c-0.876999,0 -1.782333,0 -2.700989,0c-0.856506,0 -1.81601,0 -2.653,0c-0.802094,0 -1.841629,-0.000031 -2.707672,0c-0.828537,0.000031 -1.731018,-0.000687 -2.591003,0.106339c-0.920135,0.114502 -1.81662,0.219238 -2.746323,0.443329c-0.809128,0.195023 -1.727005,0.200333 -2.621674,0.200333c-0.880371,0 -1.752991,-0.050934 -2.550003,0.021332c-0.851654,0.077225 -1.755951,0.281799 -2.554337,0.378662c-1.064743,0.129181 -1.885529,0.222717 -2.853989,0.350006c-0.72757,0.095627 -1.707672,0.228043 -2.607254,0.248871c-0.930634,0.021545 -1.664413,0.001129 -2.619003,0.001129c-0.936417,0 -1.757706,-0.080688 -2.665085,0.021332c-0.988998,0.111206 -1.843994,0.228668 -2.676453,0.228668c-0.973877,0 -1.816635,-0.074112 -2.698883,0.176331c-0.842453,0.239151 -1.653412,0.485107 -2.566666,0.615341c-0.869415,0.123993 -1.691757,0.390686 -2.59375,0.458328c-0.812347,0.060913 -1.660782,0.347488 -2.443237,0.607666c-0.875656,0.291168 -1.825012,0.142334 -2.716003,0.142334c-0.908005,0 -1.78434,0 -2.705338,0c-0.875,0 -1.743118,0.187332 -2.596336,0.25c-0.909218,0.066788 -1.820328,0 -2.646332,0c-0.945663,0 -1.898026,-0.013916 -2.006668,-0.801331c-0.120872,-0.876083 -0.020805,-1.750336 -0.144333,-2.686005c-0.117096,-0.886948 -0.383904,-1.77565 -0.522995,-2.637665c-0.138214,-0.856567 -0.064468,-1.79837 -0.083336,-2.666672c-0.020836,-0.959 -0.209465,-1.735046 -0.249664,-2.600662c-0.03878,-0.835144 -0.2295,-1.815262 -0.250336,-2.712952c-0.020081,-0.865158 -0.105804,-1.711182 0.009003,-2.585709c0.121643,-0.926636 0.243004,-1.816208 0.469994,-2.659012c0.231041,-0.857864 0.271004,-1.743668 0.271004,-2.637039c0,-0.887955 0,-1.752243 0,-2.632751c0,-0.884918 0,-1.786522 0,-2.665863c0,-0.90667 0,-1.770668 0,-2.585999c0,-0.907333 0,-1.898003 0,-2.753334c0,-0.903664 -0.093674,-1.797089 0.01429,-2.651123c0.111748,-0.88398 0.526054,-1.591248 0.796417,-2.510712c0.252403,-0.858398 0.378387,-1.644798 0.425003,-2.687454c0.033737,-0.754532 0.01429,-1.749672 0.01429,-2.622047c0,-0.850998 0.014755,-1.863968 -0.106331,-2.715332c-0.120071,-0.8442 -0.143669,-1.741997 -0.143669,-2.688332c0,-0.824959 0.000549,-1.693665 0,-2.579002c-0.000565,-0.909164 -0.205864,-1.766541 -0.25,-2.641998c-0.045784,-0.908058 0,-1.728996 0,-2.628998c0,-0.94754 0,-1.847336 0,-2.722542c0,-0.914291 -0.086327,-1.978706 0.565331,-2.17746c0.854164,-0.260513 1.790047,0 2.659668,0c0.830338,0 1.790337,0 2.703339,0c0.866287,0 1.721664,0 2.626999,0c0.846001,0 1.801994,0 2.668541,0c0.889282,0 1.776123,0 2.676117,0c0.894669,0 1.792679,0 2.650009,0c0.882004,0 1.76799,0 2.632004,0c0.933411,0 1.883774,-0.09024 2.703613,0.250084c0.717758,0.297951 1.485382,0.499916 2.374802,0.499916c0.839905,0 1.822906,0 2.602539,0c0.957367,0 1.835541,0.030434 2.678711,0.291664c0.828094,0.256561 1.697266,0.457535 2.583328,0.583336c0.87439,0.124146 1.739578,0.125 2.610001,0.125c0.889664,0 1.811172,-0.098122 2.717453,0.01429c0.889618,0.110344 1.76091,0.365791 2.647552,0.455338c0.89595,0.090485 1.684235,-0.041908 2.691666,0.072037c0.74527,0.084297 1.708328,0.207001 2.608322,0.208336c0.900009,0.001335 1.735703,0.173645 2.590637,0.23571c0.923721,0.067062 1.884369,0.01429 2.754028,0.01429c0.860626,0 1.73526,0 2.606262,0c0.921829,0 1.857407,0 2.710739,0c0.84201,0 1.771805,0 2.610001,0c0.948135,0 1.87001,0 2.707672,0c0.869339,0 1.75087,0 2.682495,0c0.878586,0 1.926605,-0.525383 2.681839,0c0.605087,0.420929 0.256332,1.544708 0.256332,2.435707c0,0.793625 0,1.777458 0,2.586624c0,0.936005 0,1.754005 0,2.580002c0,0.991417 0,1.897667 0,2.845001c0,0.860001 0,1.726997 0,2.672455c0,0.830208 0,1.708878 0,2.683876c0,0.871338 0,1.796669 0,2.658005c0,0.809166 0.022247,1.703033 -0.014297,2.516708c-0.047073,1.048332 -0.160599,1.750023 -0.397751,2.793243c-0.150665,0.662811 -0.313599,1.725113 -0.408951,2.570045c-0.089981,0.797241 -0.178833,1.757332 -0.179001,2.73333c-0.000137,0.825005 0,1.722336 0,2.596001c0,0.916328 0,1.848572 0,2.714706c0,0.853867 0,1.764618 0,2.673294c0,0.810791 0.090393,1.786438 0.299667,2.590988c0.230316,0.885437 0.540527,1.601746 0.700333,2.375c0.164078,0.7939 -1.028656,1.049332 -1.885422,0.969803c-0.824265,-0.076523 -1.674103,-0.460938 -2.486252,-0.698471c-0.909286,-0.265945 -1.69899,-0.29599 -2.630997,-0.296326c-0.99733,-0.000366 -1.874832,0.039032 -2.679489,-0.02858c-0.856339,-0.07196 -1.636505,-0.30304 -2.73317,-0.429092c-0.730942,-0.084015 -1.634079,-0.149551 -2.442673,-0.221329c-1.009964,-0.089645 -1.962326,-0.070999 -2.778336,-0.070999c-0.942459,0 -1.849655,0 -2.514999,0c-1.037994,0 -2.064331,0.143204 -2.895081,0c-0.735825,-0.126846 -1.421616,-0.628525 -2.282242,-0.478668c-0.946396,0.164795 -1.74527,0.394836 -2.621674,0.550339c-0.856247,0.151932 -1.686905,0.538361 -2.51059,0.827209c-0.910675,0.319351 -1.694931,0.500061 -2.526413,0.760117c-0.901138,0.28186 -1.67511,0.485657 -2.627243,0.596207c-0.840164,0.097549 -1.659439,0.292618 -2.643082,0.473465c-0.84375,0.155121 -1.627716,0.507034 -2.542389,0.521332c-0.893509,0.013962 -1.824951,0 -2.636948,0c-0.918289,0 -1.805008,0 -2.698715,0c-0.90596,0 -1.750473,-0.054276 -2.666962,0c-0.899368,0.053268 -1.700912,0.25 -2.629333,0.25c-0.907486,0 -1.771332,-0.074295 -2.652664,0c-0.845306,0.071259 -1.66008,0.494781 -2.58667,0.5c-0.873306,0.004913 -2.057533,0.47197 -2.573448,-0.140625c-0.601929,-0.714737 -0.005211,-1.739838 -0.005211,-2.692703c0,-0.813004 -0.019272,-1.781647 0.021332,-2.480331c0.058395,-1.004807 0.208725,-1.697357 0.348457,-2.68634c0.138458,-0.97995 0.086655,-1.834183 0.132881,-2.76033c0.044624,-0.893982 0.23214,-1.753525 0.24733,-2.639c0.015968,-0.930901 0.283585,-1.725243 0.499336,-2.522331c0.238533,-0.881279 0.000664,-1.775665 0.000664,-2.630997c0,-0.942123 0,-1.812752 0,-2.705002c0,-0.898666 0,-1.783997 0,-2.700668c0,-0.8535 -0.019333,-1.739212 0,-2.606995c0.020828,-0.935364 0.245499,-1.738304 0.25,-2.688255c0.004074,-0.860992 0,-1.751625 0,-2.646416c0,-0.891998 0,-1.763168 0,-2.643661c0,-0.93 -0.055786,-1.829201 0,-2.662674c0.053452,-0.798683 0.959,-0.793663 1.958328,-0.793663c0.805344,0 1.613998,0 2.535339,0c0.902664,0 1.848328,0 2.664337,0c0.936661,0 1.831573,0 2.704041,0c0.962952,0 1.860703,0 2.721283,0c0.857666,0 1.791672,0 2.637665,0c0.907669,0 1.808014,0 2.685333,0c0.927002,0 1.755051,0.104172 2.588379,0.25c0.844193,0.147736 1.710556,0.458282 2.55896,0.5c0.887604,0.043648 1.780914,0 2.696335,0c0.885757,0 1.72612,0 2.653671,0c0.85675,0 1.721664,0 2.688034,0c0.864624,0 1.745132,0 2.652924,0c0.877045,0 1.752914,0 2.655701,0c0.932999,0 1.768234,0.093994 2.59967,0.244789c0.909317,0.164925 1.762711,0.134392 2.708328,0.296875c0.857468,0.147339 1.672104,0.232094 2.536469,0.463547c0.824173,0.220688 1.42662,0.596565 2.305206,0.744789c0.730331,0.123215 0.699997,1.15033 0.699997,2.063164c0,0.815506 0,1.736839 0,2.577461c0,0.848877 0,1.843246 0,2.76004c0,0.890671 -0.085403,1.719963 -0.323669,2.464752c-0.280701,0.87748 -0.072906,1.825661 -0.179001,2.699913c-0.1008,0.830597 -0.453476,1.633171 -0.709991,2.497337c-0.248062,0.835716 -0.348007,1.67762 -0.466339,2.516335c-0.134766,0.955154 -0.033951,1.843506 -0.159164,2.717415c-0.125061,0.872818 -0.488861,1.461014 -1.361832,1.453583c-0.839386,-0.007149 -1.661835,-0.161163 -2.580338,-0.46167c-0.640793,-0.209648 -1.535477,-0.472664 -2.360291,-0.652916c-0.852325,-0.186264 -1.90358,-0.34565 -2.850037,-0.377411c-1.008804,-0.033859 -1.584,-0.008003 -2.48851,-0.008003c-0.859497,0 -1.933533,0 -2.979156,0c-0.718002,0 -1.444962,-0.033333 -2.512421,0.01429c-0.974579,0.04348 -1.620605,0.153519 -2.687256,0.214378c-0.88208,0.050323 -1.722977,0.392097 -2.582413,0.507042c-0.902664,0.120728 -1.794281,-0.034103 -2.539246,0.235954c-0.852066,0.308876 -1.79538,0.528168 -2.69133,0.528336c-0.907333,0.000168 -1.677658,0.205177 -2.481674,0.534668c-0.820419,0.336212 -1.696381,0.57003 -2.547333,0.840324c-0.856781,0.272156 -1.685181,1.086517 -2.472534,0.755997c-0.802872,-0.337036 -0.295425,-1.693321 -0.456467,-2.551987c-0.170563,-0.909439 -0.482468,-1.651306 -0.570999,-2.620667c-0.078064,-0.854782 0,-1.766335 0,-2.696709c0,-0.844963 0,-1.716957 0,-2.598961c0,-0.941666 0,-1.819 0,-2.746002c0,-0.854996 0,-1.731995 0,-2.661331c0,-0.875122 0.583328,-1.255333 1.471329,-1.255333c0.878632,0 1.737,0 2.612,0c0.793915,0 1.786469,0 2.702377,0c0.914627,0 1.755966,0 2.547546,0c1.017075,0 1.85141,0 2.75737,0c0.898956,0 1.706818,0.163307 2.45105,0.416664c0.809128,0.275452 1.701675,0.270676 2.583328,0.333336c0.872803,0.062027 1.755203,0 2.675049,0c0.819748,0 1.743622,0.000015 2.646286,0c0.908951,-0.000015 1.740707,-0.161835 2.594666,-0.25l0.880661,0l0.906677,0l0.921661,0" id="svg_4" stroke-linecap="null" stroke-linejoin="null" stroke-dasharray="2,2" stroke="#56aaff" fill="none"/>
 </g>
</svg>